HIERARCHY
ROOT Hips
{
	OFFSET 0.000000 83.214638 0.000000
	CHANNELS 6 Xposition Yposition Zposition Xrotation Yrotation Zrotation
	JOINT Pelvis
	{
		OFFSET 0.000000 0.000000 0.000000
		CHANNELS 3 Xrotation Yrotation Zrotation
		JOINT LeftUpLeg
		{
			OFFSET 8.479700 -4.795502 -0.379100
			CHANNELS 3 Xrotation Yrotation Zrotation
			JOINT LeftLeg
			{
				OFFSET 0.024144 -32.555107 0.112900
				CHANNELS 3 Xrotation Yrotation Zrotation
				JOINT LeftFoot
				{
					OFFSET -0.024144 -32.638630 -3.012600
					CHANNELS 3 Xrotation Yrotation Zrotation
					JOINT LeftToeBase
					{
						OFFSET 0.970200 -13.225400 11.864200
						CHANNELS 3 Xrotation Yrotation Zrotation
						End Site
						{
							OFFSET 0.000000 12.319262 0.000000
						}
					}
					JOINT LFootTongue
					{
						OFFSET 1.142400 -1.059800 6.665200
						CHANNELS 3 Xrotation Yrotation Zrotation
						End Site
						{
							OFFSET 0.000000 12.319262 0.000000
						}
					}
				}
				JOINT LeftPantLeg
				{
					OFFSET 0.918482 -16.533964 -2.284700
					CHANNELS 3 Xrotation Yrotation Zrotation
					End Site
					{
						OFFSET 0.350399 24.744368 0.000000
					}
				}
			}
		}
		JOINT RightUpLeg
		{
			OFFSET -8.479700 -4.795502 -0.379100
			CHANNELS 3 Xrotation Yrotation Zrotation
			JOINT RightLeg
			{
				OFFSET -0.023144 -32.555092 0.112900
				CHANNELS 3 Xrotation Yrotation Zrotation
				JOINT RightFoot
				{
					OFFSET 0.023144 -32.638641 -3.012700
					CHANNELS 3 Xrotation Yrotation Zrotation
					JOINT RightToeBase
					{
						OFFSET -0.970200 -13.225400 11.864200
						CHANNELS 3 Xrotation Yrotation Zrotation
						End Site
						{
							OFFSET 0.000000 12.319244 0.000000
						}
					}
					JOINT RFootTongue
					{
						OFFSET -1.142200 -1.059800 6.665200
						CHANNELS 3 Xrotation Yrotation Zrotation
						End Site
						{
							OFFSET 0.000000 12.319243 0.000000
						}
					}
				}
				JOINT RightPantLeg
				{
					OFFSET -0.919482 -16.533978 -2.284800
					CHANNELS 3 Xrotation Yrotation Zrotation
					End Site
					{
						OFFSET -0.350400 24.744419 0.000000
					}
				}
			}
		}
	}
	JOINT Spine
	{
		OFFSET 0.000000 7.722000 1.166200
		CHANNELS 3 Xrotation Yrotation Zrotation
		JOINT Spine1
		{
			OFFSET 0.000000 12.024101 0.248800
			CHANNELS 3 Xrotation Yrotation Zrotation
			JOINT Spine2
			{
				OFFSET 0.000000 11.502998 -0.491200
				CHANNELS 3 Xrotation Yrotation Zrotation
				JOINT Neck
				{
					OFFSET 0.000000 18.430702 -3.123100
					CHANNELS 3 Xrotation Yrotation Zrotation
					JOINT Head
					{
						OFFSET 0.000000 9.051102 1.034000
						CHANNELS 3 Xrotation Yrotation Zrotation
						JOINT HairB
						{
							OFFSET 0.208400 24.786102 24.822300
							CHANNELS 3 Xrotation Yrotation Zrotation
							End Site
							{
								OFFSET 0.000000 32.263779 0.000000
							}
						}
						JOINT HairA
						{
							OFFSET -7.081100 24.428299 23.196600
							CHANNELS 3 Xrotation Yrotation Zrotation
							End Site
							{
								OFFSET 0.000000 32.263779 0.000000
							}
						}
						JOINT Hat
						{
							OFFSET 16.728800 15.048294 -15.439601
							CHANNELS 3 Xrotation Yrotation Zrotation
							End Site
							{
								OFFSET 0.000000 32.263779 0.000000
							}
						}
					}
				}
				JOINT LeftShoulder
				{
					OFFSET 6.197800 13.665199 -4.064700
					CHANNELS 3 Xrotation Yrotation Zrotation
					JOINT LeftArm
					{
						OFFSET 7.778100 -0.187103 -1.709300
						CHANNELS 3 Xrotation Yrotation Zrotation
						JOINT LeftForeArm
						{
							OFFSET 22.049376 0.000000 0.000000
							CHANNELS 3 Xrotation Yrotation Zrotation
							JOINT LeftHand
							{
								OFFSET 23.009392 0.000000 0.000000
								CHANNELS 3 Xrotation Yrotation Zrotation
								JOINT LeftHandThumb1
								{
									OFFSET 3.507191 -2.063065 3.133727
									CHANNELS 3 Xrotation Yrotation Zrotation
									JOINT LeftHandThumb2
									{
										OFFSET 3.101337 -1.790558 1.790558
										CHANNELS 3 Xrotation Yrotation Zrotation
										JOINT LeftHandThumb3
										{
											OFFSET 3.058640 -1.765907 1.765906
											CHANNELS 3 Xrotation Yrotation Zrotation
											End Site
											{
												OFFSET -0.415260 3.926476 -0.049563
											}
										}
									}
								}
								JOINT LeftHandIndex1
								{
									OFFSET 11.334419 -0.901459 3.706815
									CHANNELS 3 Xrotation Yrotation Zrotation
									JOINT LeftHandIndex2
									{
										OFFSET 3.283112 0.000000 0.000000
										CHANNELS 3 Xrotation Yrotation Zrotation
										JOINT LeftHandIndex3
										{
											OFFSET 3.323853 0.000000 0.000000
											CHANNELS 3 Xrotation Yrotation Zrotation
											End Site
											{
												OFFSET -1.135597 3.097809 0.402452
											}
										}
									}
								}
								JOINT LeftHandMiddle1
								{
									OFFSET 11.335861 0.000000 0.000000
									CHANNELS 3 Xrotation Yrotation Zrotation
									JOINT LeftHandMiddle2
									{
										OFFSET 3.410492 0.000000 0.000000
										CHANNELS 3 Xrotation Yrotation Zrotation
										JOINT LeftHandMiddle3
										{
											OFFSET 3.312172 0.000000 0.000000
											CHANNELS 3 Xrotation Yrotation Zrotation
											End Site
											{
												OFFSET -1.150200 3.080154 0.400270
											}
										}
									}
								}
								JOINT LeftHandRing1
								{
									OFFSET 11.514786 -0.013176 -3.003090
									CHANNELS 3 Xrotation Yrotation Zrotation
									JOINT LeftHandRing2
									{
										OFFSET 3.053307 0.000000 0.000000
										CHANNELS 3 Xrotation Yrotation Zrotation
										JOINT LeftHandRing3
										{
											OFFSET 3.295807 0.000000 0.000000
											CHANNELS 3 Xrotation Yrotation Zrotation
											End Site
											{
												OFFSET -1.281006 3.013344 0.375733
											}
										}
									}
								}
								JOINT LeftHandPinky1
								{
									OFFSET 10.518692 -0.960396 -5.730441
									CHANNELS 3 Xrotation Yrotation Zrotation
									JOINT LeftHandPinky2
									{
										OFFSET 2.861649 0.000000 0.000000
										CHANNELS 3 Xrotation Yrotation Zrotation
										JOINT LeftHandPinky3
										{
											OFFSET 2.863380 0.000000 0.000000
											CHANNELS 3 Xrotation Yrotation Zrotation
											End Site
											{
												OFFSET -0.843597 2.711159 0.369971
											}
										}
									}
								}
							}
							JOINT LSleeve
							{
								OFFSET 6.676277 -0.344902 -1.011730
								CHANNELS 3 Xrotation Yrotation Zrotation
								End Site
								{
									OFFSET 0.000000 14.885353 0.000000
								}
							}
						}
					}
				}
				JOINT RightShoulder
				{
					OFFSET -6.197800 13.665199 -4.064700
					CHANNELS 3 Xrotation Yrotation Zrotation
					JOINT RightArm
					{
						OFFSET -7.778100 -0.187103 -1.709300
						CHANNELS 3 Xrotation Yrotation Zrotation
						JOINT RightForeArm
						{
							OFFSET -22.049376 0.000000 0.000000
							CHANNELS 3 Xrotation Yrotation Zrotation
							JOINT RightHand
							{
								OFFSET -23.009392 0.000000 0.000000
								CHANNELS 3 Xrotation Yrotation Zrotation
								JOINT RightHandThumb1
								{
									OFFSET -3.507191 -2.063065 3.133727
									CHANNELS 3 Xrotation Yrotation Zrotation
									JOINT RightHandThumb2
									{
										OFFSET -3.101337 -1.790558 1.790558
										CHANNELS 3 Xrotation Yrotation Zrotation
										JOINT RightHandThumb3
										{
											OFFSET -3.058640 -1.765907 1.765906
											CHANNELS 3 Xrotation Yrotation Zrotation
											End Site
											{
												OFFSET 0.415260 3.926476 -0.049563
											}
										}
									}
								}
								JOINT RightHandIndex1
								{
									OFFSET -11.334419 -0.901459 3.706815
									CHANNELS 3 Xrotation Yrotation Zrotation
									JOINT RightHandIndex2
									{
										OFFSET -3.283112 0.000000 0.000000
										CHANNELS 3 Xrotation Yrotation Zrotation
										JOINT RightHandIndex3
										{
											OFFSET -3.323853 0.000000 0.000000
											CHANNELS 3 Xrotation Yrotation Zrotation
											End Site
											{
												OFFSET 1.135597 3.097809 0.402452
											}
										}
									}
								}
								JOINT RightHandMiddle1
								{
									OFFSET -11.335861 0.000000 0.000000
									CHANNELS 3 Xrotation Yrotation Zrotation
									JOINT RightHandMiddle2
									{
										OFFSET -3.410492 0.000000 0.000000
										CHANNELS 3 Xrotation Yrotation Zrotation
										JOINT RightHandMiddle3
										{
											OFFSET -3.312172 0.000000 0.000000
											CHANNELS 3 Xrotation Yrotation Zrotation
											End Site
											{
												OFFSET 1.150200 3.080154 0.400270
											}
										}
									}
								}
								JOINT RightHandRing1
								{
									OFFSET -11.514786 -0.013176 -3.003090
									CHANNELS 3 Xrotation Yrotation Zrotation
									JOINT RightHandRing2
									{
										OFFSET -3.053307 0.000000 0.000000
										CHANNELS 3 Xrotation Yrotation Zrotation
										JOINT RightHandRing3
										{
											OFFSET -3.295807 0.000000 0.000000
											CHANNELS 3 Xrotation Yrotation Zrotation
											End Site
											{
												OFFSET 1.281006 3.013344 0.375733
											}
										}
									}
								}
								JOINT RightHandPinky1
								{
									OFFSET -10.518692 -0.960396 -5.730441
									CHANNELS 3 Xrotation Yrotation Zrotation
									JOINT RightHandPinky2
									{
										OFFSET -2.861649 0.000000 0.000000
										CHANNELS 3 Xrotation Yrotation Zrotation
										JOINT RightHandPinky3
										{
											OFFSET -2.863380 0.000000 0.000000
											CHANNELS 3 Xrotation Yrotation Zrotation
											End Site
											{
												OFFSET 0.843597 2.711159 0.369971
											}
										}
									}
								}
							}
							JOINT RSleeve
							{
								OFFSET -6.676277 -0.344902 -1.011730
								CHANNELS 3 Xrotation Yrotation Zrotation
								End Site
								{
									OFFSET 0.000000 14.885353 0.000000
								}
							}
						}
					}
				}
				JOINT Backpack
				{
					OFFSET 0.000000 -2.471497 36.677502
					CHANNELS 3 Xrotation Yrotation Zrotation
					End Site
					{
						OFFSET 0.000000 20.427315 0.000000
					}
				}
				JOINT Hood
				{
					OFFSET 0.000000 18.754097 -10.431000
					CHANNELS 3 Xrotation Yrotation Zrotation
					JOINT Hood1
					{
						OFFSET 0.000000 -5.011002 -7.685901
						CHANNELS 3 Xrotation Yrotation Zrotation
						End Site
						{
							OFFSET 0.000000 9.175140 0.000000
						}
					}
				}
				JOINT LHoodieString
				{
					OFFSET 5.250500 16.397697 3.089900
					CHANNELS 3 Xrotation Yrotation Zrotation
					JOINT LHoodieString1
					{
						OFFSET 0.257700 -6.364304 3.694600
						CHANNELS 3 Xrotation Yrotation Zrotation
						JOINT LHoodieString2
						{
							OFFSET 0.000000 -9.643799 2.679100
							CHANNELS 3 Xrotation Yrotation Zrotation
							End Site
							{
								OFFSET 0.000000 10.009018 0.000000
							}
						}
					}
				}
				JOINT RHoodieString
				{
					OFFSET -5.250500 16.397697 3.089900
					CHANNELS 3 Xrotation Yrotation Zrotation
					JOINT RHoodieString1
					{
						OFFSET -0.257700 -6.364304 3.694600
						CHANNELS 3 Xrotation Yrotation Zrotation
						JOINT RHoodieString2
						{
							OFFSET 0.000000 -9.643799 2.679100
							CHANNELS 3 Xrotation Yrotation Zrotation
							End Site
							{
								OFFSET 0.000000 10.009018 0.000000
							}
						}
					}
				}
			}
			JOINT LBackpack_Strap
			{
				OFFSET 15.223200 -7.719803 -6.610900
				CHANNELS 3 Xrotation Yrotation Zrotation
				End Site
				{
					OFFSET 0.000000 16.040596 0.000000
				}
			}
			JOINT RBackpack_Strap
			{
				OFFSET -15.223000 -7.719803 -6.610900
				CHANNELS 3 Xrotation Yrotation Zrotation
				End Site
				{
					OFFSET 0.000000 16.040596 0.000000
				}
			}
		}
	}
	JOINT BoyFacialAnim_Joint
	{
		OFFSET 1.000000 -82.208099 -1.550900
		CHANNELS 3 Xrotation Yrotation Zrotation
		End Site
		{
			OFFSET 0.000000 30.012791 0.000000
		}
	}
}
MOTION
Frames: 4
Frame Time: 0.016667
11.249214 28.189190 317.843750 45.252015 -48.457446 79.103228 -0.000001 -0.000002 -0.000002 -67.129456 -9.050248 35.028594 33.725548 -13.576632 1.962516 -0.932166 2.959438 -36.342818 -0.000000 0.000000 0.000001 -0.000000 0.000000 0.000001 -0.000000 0.000000 0.000000 -107.838080 -7.507947 -11.615673 131.621434 14.494391 -2.675726 45.931161 16.231352 43.263634 -0.000000 0.000000 -0.000000 -0.000000 0.000000 -0.000000 0.000001 -0.000003 -0.000001 9.977913 -8.072600 -2.902148 20.581465 -10.516346 -0.144610 20.581472 -10.516338 -0.144611 6.882640 9.770584 -6.782379 -14.592938 28.209542 -15.856178 0.000001 0.000002 -0.000002 0.000001 0.000002 -0.000002 0.000001 0.000002 -0.000002 0.362247 -5.563733 -21.430630 0.286701 6.219480 -63.452041 -148.351763 -173.569081 -190.299343 39.822195 -0.729465 37.310626 -4.114268 -2.883216 2.590916 3.243736 8.782376 2.381194 0.000001 -0.000001 -0.000005 -1.241510 -9.199125 -7.937326 0.088638 0.738672 -16.880085 -0.000002 0.000002 -0.000005 -1.135449 -2.096680 -22.025801 -0.352567 -1.388802 -20.431056 -0.000001 0.000000 0.000000 -0.604920 6.370764 -33.094288 -0.503173 -2.580191 -29.586112 0.000002 -0.000002 -0.000002 1.054967 14.668663 -34.412330 -0.798121 -5.868232 -45.099930 -0.000001 -0.000002 -0.000001 0.000000 0.000000 0.000000 -0.050565 24.927848 12.864279 -31.840067 -0.829613 -5.819331 -379.939272 5.531936 357.334706 -23.422676 14.855856 -3.043148 -8.673392 4.254492 -11.634314 1.334058 -4.465141 -1.906668 0.000000 0.000001 -0.000000 -0.335831 9.317621 2.768379 0.227941 -1.535019 12.475410 -0.000000 0.000000 0.000002 -1.156266 -1.644404 1.983699 -0.068695 0.174100 10.971375 0.000002 0.000002 0.000000 1.493775 -11.293064 7.517306 -0.170908 1.899012 13.176998 -0.000000 -0.000001 0.000000 2.276105 -19.063003 5.358324 -0.684455 6.522605 19.944084 0.000001 -0.000001 0.000002 -0.000002 -0.000002 -0.000001 0.000000 0.000000 -0.000000 0.000000 0.000000 -0.000000 0.000000 0.000000 -0.000000 0.000000 0.000000 -0.000000 0.000000 0.000000 0.000000 0.000000 0.000000 -0.000000 0.000000 0.000000 -0.000000 0.000000 0.000000 0.000000 0.000000 0.000000 -0.000000 -0.000001 -0.000001 -0.000000 -0.000001 -0.000001 -0.000000 -0.000001 -0.000002 -0.000002 
11.373890 29.732887 323.050354 47.359063 -47.539694 77.405421 0.000001 -0.000001 0.000000 -72.032370 -10.388971 37.626477 36.495880 -14.232567 -0.064358 2.827016 1.674088 -38.386824 -0.000002 -0.000001 0.000000 -0.000002 -0.000001 -0.000001 -0.000001 0.000000 0.000002 -107.362179 -5.514643 -15.329680 130.890221 18.341580 -2.461220 47.033256 17.021569 44.017735 -0.000001 0.000003 0.000003 -0.000001 0.000003 0.000003 0.000003 0.000002 0.000001 9.768914 -6.826460 -2.692314 20.001874 -8.523654 -0.281555 20.001879 -8.523658 -0.281549 4.786781 10.382577 -5.045975 -15.958532 27.751238 -13.817710 -0.000001 0.000000 0.000001 -0.000001 0.000000 0.000001 -0.000001 0.000000 0.000001 0.397091 -5.187133 -22.907254 -0.202609 5.720624 -61.837589 -146.267039 -172.915501 -190.464592 42.708859 -0.958243 34.784439 -4.445389 -3.482521 2.728194 2.927700 8.062631 2.313129 -0.000003 0.000001 -0.000004 -1.336438 -9.878731 -7.883071 0.087935 0.739310 -16.878485 0.000002 -0.000003 -0.000002 -1.169745 -2.214615 -21.672129 -0.339390 -1.353849 -20.091324 0.000002 -0.000001 0.000002 -0.583569 6.403830 -32.534547 -0.486663 -2.550247 -29.022942 -0.000001 0.000004 -0.000003 1.177327 14.915629 -33.689563 -0.786892 -5.857027 -44.330738 0.000001 0.000000 -0.000002 -0.000001 0.000000 -0.000000 -0.236745 25.773732 13.779214 -31.371431 -4.560775 -1.693863 -384.756768 7.161674 357.547508 -27.510933 12.091522 2.976922 -7.433051 2.682788 -10.818160 1.979905 -5.919520 -2.080319 -0.000000 -0.000001 0.000002 -0.393905 9.214358 3.477784 0.148241 -1.237751 15.555664 -0.000000 0.000001 -0.000001 -1.160004 -1.569475 2.937671 -0.161686 0.560300 15.420969 -0.000000 0.000000 -0.000000 1.457531 -10.868855 11.271564 -0.249399 2.199687 16.784287 0.000000 -0.000002 -0.000002 2.263694 -18.388032 10.401821 -0.823579 6.882896 24.954909 -0.000000 -0.000001 -0.000002 0.000002 -0.000000 0.000001 -0.000000 0.000001 0.000000 -0.000000 0.000001 0.000000 -0.000000 0.000001 0.000000 -0.000000 0.000001 0.000000 -0.000000 0.000001 0.000000 -0.000000 0.000000 -0.000000 -0.000000 0.000001 0.000000 -0.000000 0.000001 0.000000 -0.000000 0.000000 -0.000000 0.000001 -0.000001 -0.000000 0.000001 -0.000001 -0.000000 0.000001 -0.000001 0.000000 
11.332741 31.226757 328.230225 48.365447 -46.978096 75.534837 0.000001 0.000000 -0.000000 -78.650106 -12.179601 38.528687 44.061018 -14.234060 -2.065206 5.495391 0.567124 -34.491625 0.000001 0.000001 -0.000001 0.000001 0.000001 -0.000002 0.000000 -0.000001 0.000001 -105.871450 -3.751328 -19.750503 129.360614 21.422943 -2.114750 48.717998 17.748482 43.948599 -0.000001 -0.000002 -0.000000 -0.000001 -0.000002 -0.000000 -0.000003 0.000003 0.000002 9.470260 -5.694398 -2.786435 19.278006 -6.757571 -0.819779 19.277990 -6.757578 -0.819795 2.631856 10.989361 -3.335743 -17.269377 27.297063 -11.811727 0.000001 -0.000000 0.000001 0.000001 -0.000000 0.000001 0.000001 -0.000000 0.000001 0.465101 -4.608217 -24.755910 -0.485215 5.159802 -58.615379 -144.010809 -172.188290 -190.600267 45.765717 -1.440273 30.198790 -4.773358 -4.073353 2.858750 2.615710 7.353337 2.242193 0.000001 -0.000001 -0.000002 -1.428904 -10.548849 -7.827912 0.087328 0.740321 -16.874297 -0.000002 -0.000001 -0.000002 -1.201770 -2.331307 -21.321004 -0.326565 -1.319096 -19.753894 -0.000000 -0.000002 -0.000000 -0.562663 6.437001 -31.980301 -0.470579 -2.520381 -28.465310 0.000000 0.000004 -0.000002 1.292206 15.162475 -32.973394 -0.775885 -5.845665 -43.570006 -0.000003 0.000003 -0.000003 -0.000001 0.000001 0.000000 -0.396561 26.079974 14.675674 -30.053481 -9.716205 4.642511 -391.232525 11.814322 359.537961 -30.477913 10.402950 5.041876 -6.133044 1.047356 -9.912464 2.654150 -7.447380 -2.244903 0.000001 0.000000 -0.000002 -0.450104 9.106246 4.214732 0.053988 -0.930977 18.768634 -0.000001 0.000000 0.000004 -1.164880 -1.492396 3.920520 -0.288219 0.955480 20.070743 -0.000000 0.000001 0.000003 1.386771 -10.440781 15.187356 -0.353050 2.507110 20.550989 -0.000000 -0.000001 0.000004 2.167663 -17.721312 15.653574 -1.011865 7.240386 30.198667 0.000000 -0.000000 0.000000 -0.000002 -0.000001 -0.000004 -0.000000 0.000001 -0.000001 -0.000000 0.000001 -0.000001 -0.000000 0.000001 -0.000001 -0.000000 0.000001 -0.000001 -0.000000 0.000001 -0.000000 -0.000000 0.000000 -0.000000 -0.000000 0.000001 -0.000001 -0.000000 0.000001 -0.000000 -0.000000 0.000000 -0.000000 -0.000000 0.000000 -0.000000 -0.000000 0.000000 -0.000000 0.000001 0.000000 -0.000000 
11.224911 32.529682 333.370575 47.638780 -47.049878 73.110550 -0.000000 0.000001 -0.000001 -85.538598 -13.319084 37.995198 53.227907 -14.267580 -4.014151 7.103037 -0.114601 -29.395946 -0.000000 -0.000000 -0.000000 -0.000000 -0.000000 -0.000002 -0.000001 -0.000000 0.000000 -103.031887 -1.695251 -24.839557 127.946778 23.784556 -1.764119 50.336257 18.405787 43.784610 -0.000002 -0.000001 -0.000000 -0.000002 -0.000001 -0.000000 -0.000001 -0.000000 0.000001 9.174384 -4.642292 -3.124439 18.588285 -5.258758 -1.680266 18.588312 -5.258758 -1.680259 0.571271 11.532737 -1.744104 -18.427326 26.870560 -9.953116 -0.000001 0.000001 -0.000003 -0.000001 0.000001 -0.000003 -0.000001 0.000001 -0.000003 0.565330 -3.855092 -26.469872 -0.377989 4.639001 -53.992372 -141.899543 -171.460862 -190.722979 48.339967 -2.166176 23.977630 -5.095736 -4.651574 2.981487 2.310052 6.659722 2.169114 0.000002 0.000000 -0.000003 -1.518674 -11.204955 -7.773431 0.086790 0.741584 -16.868778 -0.000001 -0.000001 -0.000004 -1.231397 -2.446054 -20.976305 -0.314201 -1.284948 -19.422594 -0.000001 -0.000000 0.000002 -0.542356 6.469908 -31.436998 -0.455119 -2.490894 -27.918723 -0.000001 0.000001 -0.000002 1.399158 15.407063 -32.270776 -0.765232 -5.834277 -42.824849 0.000001 0.000001 -0.000000 -0.000000 -0.000001 -0.000001 -0.494404 25.605338 15.379851 -27.617745 -15.476801 13.095662 -397.951300 18.998074 362.816097 -31.421517 9.986924 3.015506 -4.886141 -0.502106 -8.999050 3.296531 -8.910274 -2.385460 -0.000001 -0.000000 -0.000001 -0.500780 9.004449 4.908682 -0.045889 -0.643377 21.813377 -0.000002 -0.000000 0.000002 -1.170232 -1.421034 4.831207 -0.435750 1.321408 24.491216 -0.000001 0.000000 0.000002 1.289307 -10.051201 18.899804 -0.471386 2.791343 24.127254 -0.000001 -0.000000 0.000000 2.001328 -17.132466 20.631051 -1.228855 7.557153 35.191371 0.000000 0.000000 -0.000001 -0.000000 -0.000001 -0.000003 -0.000001 -0.000000 0.000000 -0.000001 -0.000000 0.000000 -0.000001 -0.000000 0.000000 -0.000001 -0.000000 0.000000 -0.000001 -0.000000 0.000001 -0.000001 -0.000001 0.000000 -0.000001 -0.000000 0.000000 -0.000001 -0.000000 0.000001 -0.000001 -0.000001 0.000000 0.000000 0.000000 -0.000000 0.000000 0.000000 -0.000000 -0.000000 0.000001 -0.000001 
